<?xml version="1.0" encoding="UTF-8" standalone="no"?><!DOCTYPE svg PUBLIC "-//W3C//DTD SVG 1.1//EN" "http://www.w3.org/Graphics/SVG/1.1/DTD/svg11.dtd"><svg width="100%" height="100%" viewBox="0 0 1280 720" version="1.1" xmlns="http://www.w3.org/2000/svg" xmlns:xlink="http://www.w3.org/1999/xlink" xml:space="preserve" xmlns:serif="http://www.serif.com/" style="fill-rule:evenodd;clip-rule:evenodd;stroke-linecap:round;stroke-linejoin:round;stroke-miterlimit:1.5;" id="screen"><g><path d="M157.464,199.209c0,-5.566 -4.518,-10.085 -10.084,-10.085l-20.17,-0c-5.566,-0 -10.085,4.519 -10.085,10.085l0,20.169c0,5.566 4.519,10.085 10.085,10.085l20.17,0c5.566,0 10.084,-4.519 10.084,-10.085l0,-20.169Z" style="fill:#ebebeb;stroke:#000;stroke-width:1px;"/><path d="M208.274,199.209c-0,-5.566 -4.519,-10.085 -10.085,-10.085l-20.17,-0c-5.566,-0 -10.085,4.519 -10.085,10.085l0,20.169c0,5.566 4.519,10.085 10.085,10.085l20.17,0c5.566,0 10.085,-4.519 10.085,-10.085l-0,-20.169Z" style="fill:#ebebeb;stroke:#000;stroke-width:1px;"/><path d="M259.229,199.209c0,-5.566 -4.519,-10.085 -10.085,-10.085l-20.169,-0c-5.566,-0 -10.085,4.519 -10.085,10.085l-0,20.169c-0,5.566 4.519,10.085 10.085,10.085l20.169,0c5.566,0 10.085,-4.519 10.085,-10.085l0,-20.169Z" style="fill:#ebebeb;stroke:#000;stroke-width:1px;"/><path d="M310.229,199.209c0,-5.566 -4.519,-10.085 -10.085,-10.085l-20.169,-0c-5.566,-0 -10.085,4.519 -10.085,10.085l-0,20.169c-0,5.566 4.519,10.085 10.085,10.085l20.169,0c5.566,0 10.085,-4.519 10.085,-10.085l0,-20.169Z" style="fill:#ebebeb;stroke:#000;stroke-width:1px;"/><path d="M428.861,199.209c0,-5.566 -4.519,-10.085 -10.085,-10.085l-20.169,-0c-5.566,-0 -10.085,4.519 -10.085,10.085l-0,20.169c-0,5.566 4.519,10.085 10.085,10.085l20.169,0c5.566,0 10.085,-4.519 10.085,-10.085l0,-20.169Z" style="fill:#ebebeb;stroke:#000;stroke-width:1px;"/><path d="M479.67,199.209c0,-5.566 -4.518,-10.085 -10.084,-10.085l-20.17,-0c-5.566,-0 -10.085,4.519 -10.085,10.085l0,20.169c0,5.566 4.519,10.085 10.085,10.085l20.17,0c5.566,0 10.084,-4.519 10.084,-10.085l0,-20.169Z" style="fill:#ebebeb;stroke:#000;stroke-width:1px;"/><path d="M530.626,199.209c-0,-5.566 -4.519,-10.085 -10.085,-10.085l-20.17,-0c-5.566,-0 -10.084,4.519 -10.084,10.085l-0,20.169c-0,5.566 4.518,10.085 10.084,10.085l20.17,0c5.566,0 10.085,-4.519 10.085,-10.085l-0,-20.169Z" style="fill:#ebebeb;stroke:#000;stroke-width:1px;"/><path d="M581.626,199.209c-0,-5.566 -4.519,-10.085 -10.085,-10.085l-20.17,-0c-5.566,-0 -10.084,4.519 -10.084,10.085l-0,20.169c-0,5.566 4.518,10.085 10.084,10.085l20.17,0c5.566,0 10.085,-4.519 10.085,-10.085l-0,-20.169Z" style="fill:#ebebeb;stroke:#000;stroke-width:1px;"/><path d="M632.402,199.209c-0,-5.566 -4.519,-10.085 -10.085,-10.085l-20.17,-0c-5.566,-0 -10.084,4.519 -10.084,10.085l-0,20.169c-0,5.566 4.518,10.085 10.084,10.085l20.17,0c5.566,0 10.085,-4.519 10.085,-10.085l-0,-20.169Z" style="fill:#ebebeb;stroke:#000;stroke-width:1px;"/><path d="M683.211,199.209c-0,-5.566 -4.519,-10.085 -10.085,-10.085l-20.169,-0c-5.566,-0 -10.085,4.519 -10.085,10.085l-0,20.169c-0,5.566 4.519,10.085 10.085,10.085l20.169,0c5.566,0 10.085,-4.519 10.085,-10.085l-0,-20.169Z" style="fill:#ebebeb;stroke:#000;stroke-width:1px;"/><path d="M734.166,199.209c0,-5.566 -4.518,-10.085 -10.084,-10.085l-20.17,-0c-5.566,-0 -10.085,4.519 -10.085,10.085l0,20.169c0,5.566 4.519,10.085 10.085,10.085l20.17,0c5.566,0 10.084,-4.519 10.084,-10.085l0,-20.169Z" style="fill:#ebebeb;stroke:#000;stroke-width:1px;"/><path d="M785.166,199.209c0,-5.566 -4.518,-10.085 -10.084,-10.085l-20.17,-0c-5.566,-0 -10.085,4.519 -10.085,10.085l0,20.169c0,5.566 4.519,10.085 10.085,10.085l20.17,0c5.566,0 10.084,-4.519 10.084,-10.085l0,-20.169Z" style="fill:#ebebeb;stroke:#000;stroke-width:1px;"/><path d="M836.166,199.209c0,-5.566 -4.518,-10.085 -10.084,-10.085l-20.17,-0c-5.566,-0 -10.085,4.519 -10.085,10.085l0,20.169c0,5.566 4.519,10.085 10.085,10.085l20.17,0c5.566,0 10.084,-4.519 10.084,-10.085l0,-20.169Z" style="fill:#ebebeb;stroke:#000;stroke-width:1px;"/><path d="M887.166,199.209c0,-5.566 -4.518,-10.085 -10.084,-10.085l-20.17,-0c-5.566,-0 -10.085,4.519 -10.085,10.085l0,20.169c0,5.566 4.519,10.085 10.085,10.085l20.17,0c5.566,0 10.084,-4.519 10.084,-10.085l0,-20.169Z" style="fill:#ebebeb;stroke:#000;stroke-width:1px;"/><path d="M1008.6,199.209c0,-5.566 -4.519,-10.085 -10.085,-10.085l-20.169,-0c-5.566,-0 -10.085,4.519 -10.085,10.085l-0,20.169c-0,5.566 4.519,10.085 10.085,10.085l20.169,0c5.566,0 10.085,-4.519 10.085,-10.085l0,-20.169Z" style="fill:#ebebeb;stroke:#000;stroke-width:1px;"/><path d="M1059.41,199.209c0,-5.566 -4.519,-10.085 -10.084,-10.085l-20.17,-0c-5.566,-0 -10.085,4.519 -10.085,10.085l0,20.169c0,5.566 4.519,10.085 10.085,10.085l20.17,0c5.565,0 10.084,-4.519 10.084,-10.085l0,-20.169Z" style="fill:#ebebeb;stroke:#000;stroke-width:1px;"/><path d="M1110.36,199.209c-0,-5.566 -4.519,-10.085 -10.085,-10.085l-20.17,-0c-5.566,-0 -10.084,4.519 -10.084,10.085l-0,20.169c-0,5.566 4.518,10.085 10.084,10.085l20.17,0c5.566,0 10.085,-4.519 10.085,-10.085l-0,-20.169Z" style="fill:#ebebeb;stroke:#000;stroke-width:1px;"/><path d="M1161.36,199.209c-0,-5.566 -4.519,-10.085 -10.085,-10.085l-20.17,-0c-5.566,-0 -10.084,4.519 -10.084,10.085l-0,20.169c-0,5.566 4.518,10.085 10.084,10.085l20.17,0c5.566,0 10.085,-4.519 10.085,-10.085l-0,-20.169Z" style="fill:#ebebeb;stroke:#000;stroke-width:1px;"/></g><g><path d="M157.464,250.209c0,-5.566 -4.518,-10.085 -10.084,-10.085l-20.17,-0c-5.566,-0 -10.085,4.519 -10.085,10.085l0,20.169c0,5.566 4.519,10.085 10.085,10.085l20.17,0c5.566,0 10.084,-4.519 10.084,-10.085l0,-20.169Z" style="fill:#ebebeb;stroke:#000;stroke-width:1px;"/><path d="M208.274,250.209c-0,-5.566 -4.519,-10.085 -10.085,-10.085l-20.17,-0c-5.566,-0 -10.085,4.519 -10.085,10.085l0,20.169c0,5.566 4.519,10.085 10.085,10.085l20.17,0c5.566,0 10.085,-4.519 10.085,-10.085l-0,-20.169Z" style="fill:#ebebeb;stroke:#000;stroke-width:1px;"/><path d="M259.229,250.209c0,-5.566 -4.519,-10.085 -10.085,-10.085l-20.169,-0c-5.566,-0 -10.085,4.519 -10.085,10.085l-0,20.169c-0,5.566 4.519,10.085 10.085,10.085l20.169,0c5.566,0 10.085,-4.519 10.085,-10.085l0,-20.169Z" style="fill:#ebebeb;stroke:#000;stroke-width:1px;"/><path d="M310.229,250.209c0,-5.566 -4.519,-10.085 -10.085,-10.085l-20.169,-0c-5.566,-0 -10.085,4.519 -10.085,10.085l-0,20.169c-0,5.566 4.519,10.085 10.085,10.085l20.169,0c5.566,0 10.085,-4.519 10.085,-10.085l0,-20.169Z" style="fill:#ebebeb;stroke:#000;stroke-width:1px;"/><path d="M428.861,250.209c0,-5.566 -4.519,-10.085 -10.085,-10.085l-20.169,-0c-5.566,-0 -10.085,4.519 -10.085,10.085l-0,20.169c-0,5.566 4.519,10.085 10.085,10.085l20.169,0c5.566,0 10.085,-4.519 10.085,-10.085l0,-20.169Z" style="fill:#ebebeb;stroke:#000;stroke-width:1px;"/><path d="M479.67,250.209c0,-5.566 -4.518,-10.085 -10.084,-10.085l-20.17,-0c-5.566,-0 -10.085,4.519 -10.085,10.085l0,20.169c0,5.566 4.519,10.085 10.085,10.085l20.17,0c5.566,0 10.084,-4.519 10.084,-10.085l0,-20.169Z" style="fill:#ebebeb;stroke:#000;stroke-width:1px;"/><path d="M530.626,250.209c-0,-5.566 -4.519,-10.085 -10.085,-10.085l-20.17,-0c-5.566,-0 -10.084,4.519 -10.084,10.085l-0,20.169c-0,5.566 4.518,10.085 10.084,10.085l20.17,0c5.566,0 10.085,-4.519 10.085,-10.085l-0,-20.169Z" style="fill:#ebebeb;stroke:#000;stroke-width:1px;"/><path d="M581.626,250.209c-0,-5.566 -4.519,-10.085 -10.085,-10.085l-20.17,-0c-5.566,-0 -10.084,4.519 -10.084,10.085l-0,20.169c-0,5.566 4.518,10.085 10.084,10.085l20.17,0c5.566,0 10.085,-4.519 10.085,-10.085l-0,-20.169Z" style="fill:#ebebeb;stroke:#000;stroke-width:1px;"/><path d="M632.402,250.209c-0,-5.566 -4.519,-10.085 -10.085,-10.085l-20.17,-0c-5.566,-0 -10.084,4.519 -10.084,10.085l-0,20.169c-0,5.566 4.518,10.085 10.084,10.085l20.17,0c5.566,0 10.085,-4.519 10.085,-10.085l-0,-20.169Z" style="fill:#ebebeb;stroke:#000;stroke-width:1px;"/><path d="M683.211,250.209c-0,-5.566 -4.519,-10.085 -10.085,-10.085l-20.169,-0c-5.566,-0 -10.085,4.519 -10.085,10.085l-0,20.169c-0,5.566 4.519,10.085 10.085,10.085l20.169,0c5.566,0 10.085,-4.519 10.085,-10.085l-0,-20.169Z" style="fill:#ebebeb;stroke:#000;stroke-width:1px;"/><path d="M734.166,250.209c0,-5.566 -4.518,-10.085 -10.084,-10.085l-20.17,-0c-5.566,-0 -10.085,4.519 -10.085,10.085l0,20.169c0,5.566 4.519,10.085 10.085,10.085l20.17,0c5.566,0 10.084,-4.519 10.084,-10.085l0,-20.169Z" style="fill:#ebebeb;stroke:#000;stroke-width:1px;"/><path d="M785.166,250.209c0,-5.566 -4.518,-10.085 -10.084,-10.085l-20.17,-0c-5.566,-0 -10.085,4.519 -10.085,10.085l0,20.169c0,5.566 4.519,10.085 10.085,10.085l20.17,0c5.566,0 10.084,-4.519 10.084,-10.085l0,-20.169Z" style="fill:#ebebeb;stroke:#000;stroke-width:1px;"/><path d="M836.166,250.209c0,-5.566 -4.518,-10.085 -10.084,-10.085l-20.17,-0c-5.566,-0 -10.085,4.519 -10.085,10.085l0,20.169c0,5.566 4.519,10.085 10.085,10.085l20.17,0c5.566,0 10.084,-4.519 10.084,-10.085l0,-20.169Z" style="fill:#ebebeb;stroke:#000;stroke-width:1px;"/><path d="M887.166,250.209c0,-5.566 -4.518,-10.085 -10.084,-10.085l-20.17,-0c-5.566,-0 -10.085,4.519 -10.085,10.085l0,20.169c0,5.566 4.519,10.085 10.085,10.085l20.17,0c5.566,0 10.084,-4.519 10.084,-10.085l0,-20.169Z" style="fill:#ebebeb;stroke:#000;stroke-width:1px;"/><path d="M1008.6,250.209c0,-5.566 -4.519,-10.085 -10.085,-10.085l-20.169,-0c-5.566,-0 -10.085,4.519 -10.085,10.085l-0,20.169c-0,5.566 4.519,10.085 10.085,10.085l20.169,0c5.566,0 10.085,-4.519 10.085,-10.085l0,-20.169Z" style="fill:#ebebeb;stroke:#000;stroke-width:1px;"/><path d="M1059.41,250.209c0,-5.566 -4.519,-10.085 -10.084,-10.085l-20.17,-0c-5.566,-0 -10.085,4.519 -10.085,10.085l0,20.169c0,5.566 4.519,10.085 10.085,10.085l20.17,0c5.565,0 10.084,-4.519 10.084,-10.085l0,-20.169Z" style="fill:#ebebeb;stroke:#000;stroke-width:1px;"/><path d="M1110.36,250.209c-0,-5.566 -4.519,-10.085 -10.085,-10.085l-20.17,-0c-5.566,-0 -10.084,4.519 -10.084,10.085l-0,20.169c-0,5.566 4.518,10.085 10.084,10.085l20.17,0c5.566,0 10.085,-4.519 10.085,-10.085l-0,-20.169Z" style="fill:#ebebeb;stroke:#000;stroke-width:1px;"/><path d="M1161.36,250.209c-0,-5.566 -4.519,-10.085 -10.085,-10.085l-20.17,-0c-5.566,-0 -10.084,4.519 -10.084,10.085l-0,20.169c-0,5.566 4.518,10.085 10.084,10.085l20.17,0c5.566,0 10.085,-4.519 10.085,-10.085l-0,-20.169Z" style="fill:#ebebeb;stroke:#000;stroke-width:1px;"/></g><g><path d="M157.464,365.282c0,-5.566 -4.518,-10.085 -10.084,-10.085l-20.17,-0c-5.566,-0 -10.085,4.519 -10.085,10.085l0,20.169c0,5.566 4.519,10.085 10.085,10.085l20.17,0c5.566,0 10.084,-4.519 10.084,-10.085l0,-20.169Z" style="fill:#ebebeb;stroke:#000;stroke-width:1px;"/><path d="M208.274,365.282c-0,-5.566 -4.519,-10.085 -10.085,-10.085l-20.17,-0c-5.566,-0 -10.085,4.519 -10.085,10.085l0,20.169c0,5.566 4.519,10.085 10.085,10.085l20.17,0c5.566,0 10.085,-4.519 10.085,-10.085l-0,-20.169Z" style="fill:#ebebeb;stroke:#000;stroke-width:1px;"/><path d="M259.229,365.282c0,-5.566 -4.519,-10.085 -10.085,-10.085l-20.169,-0c-5.566,-0 -10.085,4.519 -10.085,10.085l-0,20.169c-0,5.566 4.519,10.085 10.085,10.085l20.169,0c5.566,0 10.085,-4.519 10.085,-10.085l0,-20.169Z" style="fill:#ebebeb;stroke:#000;stroke-width:1px;"/><path d="M310.229,365.282c0,-5.566 -4.519,-10.085 -10.085,-10.085l-20.169,-0c-5.566,-0 -10.085,4.519 -10.085,10.085l-0,20.169c-0,5.566 4.519,10.085 10.085,10.085l20.169,0c5.566,0 10.085,-4.519 10.085,-10.085l0,-20.169Z" style="fill:#ebebeb;stroke:#000;stroke-width:1px;"/><path d="M428.861,365.282c0,-5.566 -4.519,-10.085 -10.085,-10.085l-20.169,-0c-5.566,-0 -10.085,4.519 -10.085,10.085l-0,20.169c-0,5.566 4.519,10.085 10.085,10.085l20.169,0c5.566,0 10.085,-4.519 10.085,-10.085l0,-20.169Z" style="fill:#ebebeb;stroke:#000;stroke-width:1px;"/><path d="M479.67,365.282c0,-5.566 -4.518,-10.085 -10.084,-10.085l-20.17,-0c-5.566,-0 -10.085,4.519 -10.085,10.085l0,20.169c0,5.566 4.519,10.085 10.085,10.085l20.17,0c5.566,0 10.084,-4.519 10.084,-10.085l0,-20.169Z" style="fill:#ebebeb;stroke:#000;stroke-width:1px;"/><path d="M530.626,365.282c-0,-5.566 -4.519,-10.085 -10.085,-10.085l-20.17,-0c-5.566,-0 -10.084,4.519 -10.084,10.085l-0,20.169c-0,5.566 4.518,10.085 10.084,10.085l20.17,0c5.566,0 10.085,-4.519 10.085,-10.085l-0,-20.169Z" style="fill:#ebebeb;stroke:#000;stroke-width:1px;"/><path d="M581.626,365.282c-0,-5.566 -4.519,-10.085 -10.085,-10.085l-20.17,-0c-5.566,-0 -10.084,4.519 -10.084,10.085l-0,20.169c-0,5.566 4.518,10.085 10.084,10.085l20.17,0c5.566,0 10.085,-4.519 10.085,-10.085l-0,-20.169Z" style="fill:#ebebeb;stroke:#000;stroke-width:1px;"/><path d="M632.402,365.282c-0,-5.566 -4.519,-10.085 -10.085,-10.085l-20.17,-0c-5.566,-0 -10.084,4.519 -10.084,10.085l-0,20.169c-0,5.566 4.518,10.085 10.084,10.085l20.17,0c5.566,0 10.085,-4.519 10.085,-10.085l-0,-20.169Z" style="fill:#ebebeb;stroke:#000;stroke-width:1px;"/><path d="M683.211,365.282c-0,-5.566 -4.519,-10.085 -10.085,-10.085l-20.169,-0c-5.566,-0 -10.085,4.519 -10.085,10.085l-0,20.169c-0,5.566 4.519,10.085 10.085,10.085l20.169,0c5.566,0 10.085,-4.519 10.085,-10.085l-0,-20.169Z" style="fill:#ebebeb;stroke:#000;stroke-width:1px;"/><path d="M734.166,365.282c0,-5.566 -4.518,-10.085 -10.084,-10.085l-20.17,-0c-5.566,-0 -10.085,4.519 -10.085,10.085l0,20.169c0,5.566 4.519,10.085 10.085,10.085l20.17,0c5.566,0 10.084,-4.519 10.084,-10.085l0,-20.169Z" style="fill:#ebebeb;stroke:#000;stroke-width:1px;"/><path d="M785.166,365.282c0,-5.566 -4.518,-10.085 -10.084,-10.085l-20.17,-0c-5.566,-0 -10.085,4.519 -10.085,10.085l0,20.169c0,5.566 4.519,10.085 10.085,10.085l20.17,0c5.566,0 10.084,-4.519 10.084,-10.085l0,-20.169Z" style="fill:#ebebeb;stroke:#000;stroke-width:1px;"/><path d="M836.166,365.282c0,-5.566 -4.518,-10.085 -10.084,-10.085l-20.17,-0c-5.566,-0 -10.085,4.519 -10.085,10.085l0,20.169c0,5.566 4.519,10.085 10.085,10.085l20.17,0c5.566,0 10.084,-4.519 10.084,-10.085l0,-20.169Z" style="fill:#ebebeb;stroke:#000;stroke-width:1px;"/><path d="M887.166,365.282c0,-5.566 -4.518,-10.085 -10.084,-10.085l-20.17,-0c-5.566,-0 -10.085,4.519 -10.085,10.085l0,20.169c0,5.566 4.519,10.085 10.085,10.085l20.17,0c5.566,0 10.084,-4.519 10.084,-10.085l0,-20.169Z" style="fill:#ebebeb;stroke:#000;stroke-width:1px;"/><path d="M1008.6,365.282c0,-5.566 -4.519,-10.085 -10.085,-10.085l-20.169,-0c-5.566,-0 -10.085,4.519 -10.085,10.085l-0,20.169c-0,5.566 4.519,10.085 10.085,10.085l20.169,0c5.566,0 10.085,-4.519 10.085,-10.085l0,-20.169Z" style="fill:#ebebeb;stroke:#000;stroke-width:1px;"/><path d="M1059.41,365.282c0,-5.566 -4.519,-10.085 -10.084,-10.085l-20.17,-0c-5.566,-0 -10.085,4.519 -10.085,10.085l0,20.169c0,5.566 4.519,10.085 10.085,10.085l20.17,0c5.565,0 10.084,-4.519 10.084,-10.085l0,-20.169Z" style="fill:#ebebeb;stroke:#000;stroke-width:1px;"/><path d="M1110.36,365.282c-0,-5.566 -4.519,-10.085 -10.085,-10.085l-20.17,-0c-5.566,-0 -10.084,4.519 -10.084,10.085l-0,20.169c-0,5.566 4.518,10.085 10.084,10.085l20.17,0c5.566,0 10.085,-4.519 10.085,-10.085l-0,-20.169Z" style="fill:#ebebeb;stroke:#000;stroke-width:1px;"/><path d="M1161.36,365.282c-0,-5.566 -4.519,-10.085 -10.085,-10.085l-20.17,-0c-5.566,-0 -10.084,4.519 -10.084,10.085l-0,20.169c-0,5.566 4.518,10.085 10.084,10.085l20.17,0c5.566,0 10.085,-4.519 10.085,-10.085l-0,-20.169Z" style="fill:#ebebeb;stroke:#000;stroke-width:1px;"/></g><g><path d="M157.464,416.282c0,-5.566 -4.518,-10.085 -10.084,-10.085l-20.17,-0c-5.566,-0 -10.085,4.519 -10.085,10.085l0,20.169c0,5.566 4.519,10.085 10.085,10.085l20.17,0c5.566,0 10.084,-4.519 10.084,-10.085l0,-20.169Z" style="fill:#ebebeb;stroke:#000;stroke-width:1px;"/><path d="M208.274,416.282c-0,-5.566 -4.519,-10.085 -10.085,-10.085l-20.17,-0c-5.566,-0 -10.085,4.519 -10.085,10.085l0,20.169c0,5.566 4.519,10.085 10.085,10.085l20.17,0c5.566,0 10.085,-4.519 10.085,-10.085l-0,-20.169Z" style="fill:#ebebeb;stroke:#000;stroke-width:1px;"/><path d="M259.229,416.282c0,-5.566 -4.519,-10.085 -10.085,-10.085l-20.169,-0c-5.566,-0 -10.085,4.519 -10.085,10.085l-0,20.169c-0,5.566 4.519,10.085 10.085,10.085l20.169,0c5.566,0 10.085,-4.519 10.085,-10.085l0,-20.169Z" style="fill:#ebebeb;stroke:#000;stroke-width:1px;"/><path d="M310.229,416.282c0,-5.566 -4.519,-10.085 -10.085,-10.085l-20.169,-0c-5.566,-0 -10.085,4.519 -10.085,10.085l-0,20.169c-0,5.566 4.519,10.085 10.085,10.085l20.169,0c5.566,0 10.085,-4.519 10.085,-10.085l0,-20.169Z" style="fill:#ebebeb;stroke:#000;stroke-width:1px;"/><path d="M428.861,416.282c0,-5.566 -4.519,-10.085 -10.085,-10.085l-20.169,-0c-5.566,-0 -10.085,4.519 -10.085,10.085l-0,20.169c-0,5.566 4.519,10.085 10.085,10.085l20.169,0c5.566,0 10.085,-4.519 10.085,-10.085l0,-20.169Z" style="fill:#ebebeb;stroke:#000;stroke-width:1px;"/><path d="M479.67,416.282c0,-5.566 -4.518,-10.085 -10.084,-10.085l-20.17,-0c-5.566,-0 -10.085,4.519 -10.085,10.085l0,20.169c0,5.566 4.519,10.085 10.085,10.085l20.17,0c5.566,0 10.084,-4.519 10.084,-10.085l0,-20.169Z" style="fill:#ebebeb;stroke:#000;stroke-width:1px;"/><path d="M530.626,416.282c-0,-5.566 -4.519,-10.085 -10.085,-10.085l-20.17,-0c-5.566,-0 -10.084,4.519 -10.084,10.085l-0,20.169c-0,5.566 4.518,10.085 10.084,10.085l20.17,0c5.566,0 10.085,-4.519 10.085,-10.085l-0,-20.169Z" style="fill:#ebebeb;stroke:#000;stroke-width:1px;"/><path d="M581.626,416.282c-0,-5.566 -4.519,-10.085 -10.085,-10.085l-20.17,-0c-5.566,-0 -10.084,4.519 -10.084,10.085l-0,20.169c-0,5.566 4.518,10.085 10.084,10.085l20.17,0c5.566,0 10.085,-4.519 10.085,-10.085l-0,-20.169Z" style="fill:#ebebeb;stroke:#000;stroke-width:1px;"/><path d="M632.402,416.282c-0,-5.566 -4.519,-10.085 -10.085,-10.085l-20.17,-0c-5.566,-0 -10.084,4.519 -10.084,10.085l-0,20.169c-0,5.566 4.518,10.085 10.084,10.085l20.17,0c5.566,0 10.085,-4.519 10.085,-10.085l-0,-20.169Z" style="fill:#ebebeb;stroke:#000;stroke-width:1px;"/><path d="M683.211,416.282c-0,-5.566 -4.519,-10.085 -10.085,-10.085l-20.169,-0c-5.566,-0 -10.085,4.519 -10.085,10.085l-0,20.169c-0,5.566 4.519,10.085 10.085,10.085l20.169,0c5.566,0 10.085,-4.519 10.085,-10.085l-0,-20.169Z" style="fill:#ebebeb;stroke:#000;stroke-width:1px;"/><path d="M734.166,416.282c0,-5.566 -4.518,-10.085 -10.084,-10.085l-20.17,-0c-5.566,-0 -10.085,4.519 -10.085,10.085l0,20.169c0,5.566 4.519,10.085 10.085,10.085l20.17,0c5.566,0 10.084,-4.519 10.084,-10.085l0,-20.169Z" style="fill:#ebebeb;stroke:#000;stroke-width:1px;"/><path d="M785.166,416.282c0,-5.566 -4.518,-10.085 -10.084,-10.085l-20.17,-0c-5.566,-0 -10.085,4.519 -10.085,10.085l0,20.169c0,5.566 4.519,10.085 10.085,10.085l20.17,0c5.566,0 10.084,-4.519 10.084,-10.085l0,-20.169Z" style="fill:#ebebeb;stroke:#000;stroke-width:1px;"/><path d="M836.166,416.282c0,-5.566 -4.518,-10.085 -10.084,-10.085l-20.17,-0c-5.566,-0 -10.085,4.519 -10.085,10.085l0,20.169c0,5.566 4.519,10.085 10.085,10.085l20.17,0c5.566,0 10.084,-4.519 10.084,-10.085l0,-20.169Z" style="fill:#ebebeb;stroke:#000;stroke-width:1px;"/><path d="M887.166,416.282c0,-5.566 -4.518,-10.085 -10.084,-10.085l-20.17,-0c-5.566,-0 -10.085,4.519 -10.085,10.085l0,20.169c0,5.566 4.519,10.085 10.085,10.085l20.17,0c5.566,0 10.084,-4.519 10.084,-10.085l0,-20.169Z" style="fill:#ebebeb;stroke:#000;stroke-width:1px;"/><path d="M1008.6,416.282c0,-5.566 -4.519,-10.085 -10.085,-10.085l-20.169,-0c-5.566,-0 -10.085,4.519 -10.085,10.085l-0,20.169c-0,5.566 4.519,10.085 10.085,10.085l20.169,0c5.566,0 10.085,-4.519 10.085,-10.085l0,-20.169Z" style="fill:#ebebeb;stroke:#000;stroke-width:1px;"/><path d="M1059.41,416.282c0,-5.566 -4.519,-10.085 -10.084,-10.085l-20.17,-0c-5.566,-0 -10.085,4.519 -10.085,10.085l0,20.169c0,5.566 4.519,10.085 10.085,10.085l20.17,0c5.565,0 10.084,-4.519 10.084,-10.085l0,-20.169Z" style="fill:#ebebeb;stroke:#000;stroke-width:1px;"/><path d="M1110.36,416.282c-0,-5.566 -4.519,-10.085 -10.085,-10.085l-20.17,-0c-5.566,-0 -10.084,4.519 -10.084,10.085l-0,20.169c-0,5.566 4.518,10.085 10.084,10.085l20.17,0c5.566,0 10.085,-4.519 10.085,-10.085l-0,-20.169Z" style="fill:#ebebeb;stroke:#000;stroke-width:1px;"/><path d="M1161.36,416.282c-0,-5.566 -4.519,-10.085 -10.085,-10.085l-20.17,-0c-5.566,-0 -10.084,4.519 -10.084,10.085l-0,20.169c-0,5.566 4.518,10.085 10.084,10.085l20.17,0c5.566,0 10.085,-4.519 10.085,-10.085l-0,-20.169Z" style="fill:#ebebeb;stroke:#000;stroke-width:1px;"/></g><g><path d="M157.464,466.83c0,-5.565 -4.518,-10.084 -10.084,-10.084l-20.17,-0c-5.566,-0 -10.085,4.519 -10.085,10.084l0,20.17c0,5.566 4.519,10.085 10.085,10.085l20.17,-0c5.566,-0 10.084,-4.519 10.084,-10.085l0,-20.17Z" style="fill:#ebebeb;stroke:#000;stroke-width:1px;"/><path d="M208.274,466.83c-0,-5.565 -4.519,-10.084 -10.085,-10.084l-20.17,-0c-5.566,-0 -10.085,4.519 -10.085,10.084l0,20.17c0,5.566 4.519,10.085 10.085,10.085l20.17,-0c5.566,-0 10.085,-4.519 10.085,-10.085l-0,-20.17Z" style="fill:#ebebeb;stroke:#000;stroke-width:1px;"/><path d="M259.229,466.83c0,-5.565 -4.519,-10.084 -10.085,-10.084l-20.169,-0c-5.566,-0 -10.085,4.519 -10.085,10.084l-0,20.17c-0,5.566 4.519,10.085 10.085,10.085l20.169,-0c5.566,-0 10.085,-4.519 10.085,-10.085l0,-20.17Z" style="fill:#ebebeb;stroke:#000;stroke-width:1px;"/><path d="M310.229,466.83c0,-5.565 -4.519,-10.084 -10.085,-10.084l-20.169,-0c-5.566,-0 -10.085,4.519 -10.085,10.084l-0,20.17c-0,5.566 4.519,10.085 10.085,10.085l20.169,-0c5.566,-0 10.085,-4.519 10.085,-10.085l0,-20.17Z" style="fill:#ebebeb;stroke:#000;stroke-width:1px;"/><path d="M428.861,466.83c0,-5.565 -4.519,-10.084 -10.085,-10.084l-20.169,-0c-5.566,-0 -10.085,4.519 -10.085,10.084l-0,20.17c-0,5.566 4.519,10.085 10.085,10.085l20.169,-0c5.566,-0 10.085,-4.519 10.085,-10.085l0,-20.17Z" style="fill:#ebebeb;stroke:#000;stroke-width:1px;"/><path d="M479.67,466.83c0,-5.565 -4.518,-10.084 -10.084,-10.084l-20.17,-0c-5.566,-0 -10.085,4.519 -10.085,10.084l0,20.17c0,5.566 4.519,10.085 10.085,10.085l20.17,-0c5.566,-0 10.084,-4.519 10.084,-10.085l0,-20.17Z" style="fill:#ebebeb;stroke:#000;stroke-width:1px;"/><path d="M530.626,466.83c-0,-5.565 -4.519,-10.084 -10.085,-10.084l-20.17,-0c-5.566,-0 -10.084,4.519 -10.084,10.084l-0,20.17c-0,5.566 4.518,10.085 10.084,10.085l20.17,-0c5.566,-0 10.085,-4.519 10.085,-10.085l-0,-20.17Z" style="fill:#ebebeb;stroke:#000;stroke-width:1px;"/><path d="M581.626,466.83c-0,-5.565 -4.519,-10.084 -10.085,-10.084l-20.17,-0c-5.566,-0 -10.084,4.519 -10.084,10.084l-0,20.17c-0,5.566 4.518,10.085 10.084,10.085l20.17,-0c5.566,-0 10.085,-4.519 10.085,-10.085l-0,-20.17Z" style="fill:#ebebeb;stroke:#000;stroke-width:1px;"/><path d="M632.402,466.83c-0,-5.565 -4.519,-10.084 -10.085,-10.084l-20.17,-0c-5.566,-0 -10.084,4.519 -10.084,10.084l-0,20.17c-0,5.566 4.518,10.085 10.084,10.085l20.17,-0c5.566,-0 10.085,-4.519 10.085,-10.085l-0,-20.17Z" style="fill:#ebebeb;stroke:#000;stroke-width:1px;"/><path d="M683.211,466.83c-0,-5.565 -4.519,-10.084 -10.085,-10.084l-20.169,-0c-5.566,-0 -10.085,4.519 -10.085,10.084l-0,20.17c-0,5.566 4.519,10.085 10.085,10.085l20.169,-0c5.566,-0 10.085,-4.519 10.085,-10.085l-0,-20.17Z" style="fill:#ebebeb;stroke:#000;stroke-width:1px;"/><path d="M734.166,466.83c0,-5.565 -4.518,-10.084 -10.084,-10.084l-20.17,-0c-5.566,-0 -10.085,4.519 -10.085,10.084l0,20.17c0,5.566 4.519,10.085 10.085,10.085l20.17,-0c5.566,-0 10.084,-4.519 10.084,-10.085l0,-20.17Z" style="fill:#ebebeb;stroke:#000;stroke-width:1px;"/><path d="M785.166,466.83c0,-5.565 -4.518,-10.084 -10.084,-10.084l-20.17,-0c-5.566,-0 -10.085,4.519 -10.085,10.084l0,20.17c0,5.566 4.519,10.085 10.085,10.085l20.17,-0c5.566,-0 10.084,-4.519 10.084,-10.085l0,-20.17Z" style="fill:#ebebeb;stroke:#000;stroke-width:1px;"/><path d="M836.166,466.83c0,-5.565 -4.518,-10.084 -10.084,-10.084l-20.17,-0c-5.566,-0 -10.085,4.519 -10.085,10.084l0,20.17c0,5.566 4.519,10.085 10.085,10.085l20.17,-0c5.566,-0 10.084,-4.519 10.084,-10.085l0,-20.17Z" style="fill:#ebebeb;stroke:#000;stroke-width:1px;"/><path d="M887.166,466.83c0,-5.565 -4.518,-10.084 -10.084,-10.084l-20.17,-0c-5.566,-0 -10.085,4.519 -10.085,10.084l0,20.17c0,5.566 4.519,10.085 10.085,10.085l20.17,-0c5.566,-0 10.084,-4.519 10.084,-10.085l0,-20.17Z" style="fill:#ebebeb;stroke:#000;stroke-width:1px;"/><path d="M1008.6,466.83c0,-5.565 -4.519,-10.084 -10.085,-10.084l-20.169,-0c-5.566,-0 -10.085,4.519 -10.085,10.084l-0,20.17c-0,5.566 4.519,10.085 10.085,10.085l20.169,-0c5.566,-0 10.085,-4.519 10.085,-10.085l0,-20.17Z" style="fill:#ebebeb;stroke:#000;stroke-width:1px;"/><path d="M1059.41,466.83c0,-5.565 -4.519,-10.084 -10.084,-10.084l-20.17,-0c-5.566,-0 -10.085,4.519 -10.085,10.084l0,20.17c0,5.566 4.519,10.085 10.085,10.085l20.17,-0c5.565,-0 10.084,-4.519 10.084,-10.085l0,-20.17Z" style="fill:#ebebeb;stroke:#000;stroke-width:1px;"/><path d="M1110.36,466.83c-0,-5.565 -4.519,-10.084 -10.085,-10.084l-20.17,-0c-5.566,-0 -10.084,4.519 -10.084,10.084l-0,20.17c-0,5.566 4.518,10.085 10.084,10.085l20.17,-0c5.566,-0 10.085,-4.519 10.085,-10.085l-0,-20.17Z" style="fill:#ebebeb;stroke:#000;stroke-width:1px;"/><path d="M1161.36,466.83c-0,-5.565 -4.519,-10.084 -10.085,-10.084l-20.17,-0c-5.566,-0 -10.084,4.519 -10.084,10.084l-0,20.17c-0,5.566 4.518,10.085 10.084,10.085l20.17,-0c5.566,-0 10.085,-4.519 10.085,-10.085l-0,-20.17Z" style="fill:#ebebeb;stroke:#000;stroke-width:1px;"/></g><g><path d="M157.464,517.83c0,-5.565 -4.518,-10.084 -10.084,-10.084l-20.17,-0c-5.566,-0 -10.085,4.519 -10.085,10.084l0,20.17c0,5.566 4.519,10.085 10.085,10.085l20.17,-0c5.566,-0 10.084,-4.519 10.084,-10.085l0,-20.17Z" style="fill:#ebebeb;stroke:#000;stroke-width:1px;"/><path d="M208.274,517.83c-0,-5.565 -4.519,-10.084 -10.085,-10.084l-20.17,-0c-5.566,-0 -10.085,4.519 -10.085,10.084l0,20.17c0,5.566 4.519,10.085 10.085,10.085l20.17,-0c5.566,-0 10.085,-4.519 10.085,-10.085l-0,-20.17Z" style="fill:#ebebeb;stroke:#000;stroke-width:1px;"/><path d="M259.229,517.83c0,-5.565 -4.519,-10.084 -10.085,-10.084l-20.169,-0c-5.566,-0 -10.085,4.519 -10.085,10.084l-0,20.17c-0,5.566 4.519,10.085 10.085,10.085l20.169,-0c5.566,-0 10.085,-4.519 10.085,-10.085l0,-20.17Z" style="fill:#ebebeb;stroke:#000;stroke-width:1px;"/><path d="M310.229,517.83c0,-5.565 -4.519,-10.084 -10.085,-10.084l-20.169,-0c-5.566,-0 -10.085,4.519 -10.085,10.084l-0,20.17c-0,5.566 4.519,10.085 10.085,10.085l20.169,-0c5.566,-0 10.085,-4.519 10.085,-10.085l0,-20.17Z" style="fill:#ebebeb;stroke:#000;stroke-width:1px;"/><path d="M428.861,517.83c0,-5.565 -4.519,-10.084 -10.085,-10.084l-20.169,-0c-5.566,-0 -10.085,4.519 -10.085,10.084l-0,20.17c-0,5.566 4.519,10.085 10.085,10.085l20.169,-0c5.566,-0 10.085,-4.519 10.085,-10.085l0,-20.17Z" style="fill:#ebebeb;stroke:#000;stroke-width:1px;"/><path d="M479.67,517.83c0,-5.565 -4.518,-10.084 -10.084,-10.084l-20.17,-0c-5.566,-0 -10.085,4.519 -10.085,10.084l0,20.17c0,5.566 4.519,10.085 10.085,10.085l20.17,-0c5.566,-0 10.084,-4.519 10.084,-10.085l0,-20.17Z" style="fill:#ebebeb;stroke:#000;stroke-width:1px;"/><path d="M530.626,517.83c-0,-5.565 -4.519,-10.084 -10.085,-10.084l-20.17,-0c-5.566,-0 -10.084,4.519 -10.084,10.084l-0,20.17c-0,5.566 4.518,10.085 10.084,10.085l20.17,-0c5.566,-0 10.085,-4.519 10.085,-10.085l-0,-20.17Z" style="fill:#ebebeb;stroke:#000;stroke-width:1px;"/><path d="M581.626,517.83c-0,-5.565 -4.519,-10.084 -10.085,-10.084l-20.17,-0c-5.566,-0 -10.084,4.519 -10.084,10.084l-0,20.17c-0,5.566 4.518,10.085 10.084,10.085l20.17,-0c5.566,-0 10.085,-4.519 10.085,-10.085l-0,-20.17Z" style="fill:#ebebeb;stroke:#000;stroke-width:1px;"/><path d="M632.402,517.83c-0,-5.565 -4.519,-10.084 -10.085,-10.084l-20.17,-0c-5.566,-0 -10.084,4.519 -10.084,10.084l-0,20.17c-0,5.566 4.518,10.085 10.084,10.085l20.17,-0c5.566,-0 10.085,-4.519 10.085,-10.085l-0,-20.17Z" style="fill:#ebebeb;stroke:#000;stroke-width:1px;"/><path d="M683.211,517.83c-0,-5.565 -4.519,-10.084 -10.085,-10.084l-20.169,-0c-5.566,-0 -10.085,4.519 -10.085,10.084l-0,20.17c-0,5.566 4.519,10.085 10.085,10.085l20.169,-0c5.566,-0 10.085,-4.519 10.085,-10.085l-0,-20.17Z" style="fill:#ebebeb;stroke:#000;stroke-width:1px;"/><path d="M734.166,517.83c0,-5.565 -4.518,-10.084 -10.084,-10.084l-20.17,-0c-5.566,-0 -10.085,4.519 -10.085,10.084l0,20.17c0,5.566 4.519,10.085 10.085,10.085l20.17,-0c5.566,-0 10.084,-4.519 10.084,-10.085l0,-20.17Z" style="fill:#ebebeb;stroke:#000;stroke-width:1px;"/><path d="M785.166,517.83c0,-5.565 -4.518,-10.084 -10.084,-10.084l-20.17,-0c-5.566,-0 -10.085,4.519 -10.085,10.084l0,20.17c0,5.566 4.519,10.085 10.085,10.085l20.17,-0c5.566,-0 10.084,-4.519 10.084,-10.085l0,-20.17Z" style="fill:#ebebeb;stroke:#000;stroke-width:1px;"/><path d="M836.166,517.83c0,-5.565 -4.518,-10.084 -10.084,-10.084l-20.17,-0c-5.566,-0 -10.085,4.519 -10.085,10.084l0,20.17c0,5.566 4.519,10.085 10.085,10.085l20.17,-0c5.566,-0 10.084,-4.519 10.084,-10.085l0,-20.17Z" style="fill:#ebebeb;stroke:#000;stroke-width:1px;"/><path d="M887.166,517.83c0,-5.565 -4.518,-10.084 -10.084,-10.084l-20.17,-0c-5.566,-0 -10.085,4.519 -10.085,10.084l0,20.17c0,5.566 4.519,10.085 10.085,10.085l20.17,-0c5.566,-0 10.084,-4.519 10.084,-10.085l0,-20.17Z" style="fill:#ebebeb;stroke:#000;stroke-width:1px;"/><path d="M1008.6,517.83c0,-5.565 -4.519,-10.084 -10.085,-10.084l-20.169,-0c-5.566,-0 -10.085,4.519 -10.085,10.084l-0,20.17c-0,5.566 4.519,10.085 10.085,10.085l20.169,-0c5.566,-0 10.085,-4.519 10.085,-10.085l0,-20.17Z" style="fill:#ebebeb;stroke:#000;stroke-width:1px;"/><path d="M1059.41,517.83c0,-5.565 -4.519,-10.084 -10.084,-10.084l-20.17,-0c-5.566,-0 -10.085,4.519 -10.085,10.084l0,20.17c0,5.566 4.519,10.085 10.085,10.085l20.17,-0c5.565,-0 10.084,-4.519 10.084,-10.085l0,-20.17Z" style="fill:#ebebeb;stroke:#000;stroke-width:1px;"/><path d="M1110.36,517.83c-0,-5.565 -4.519,-10.084 -10.085,-10.084l-20.17,-0c-5.566,-0 -10.084,4.519 -10.084,10.084l-0,20.17c-0,5.566 4.518,10.085 10.084,10.085l20.17,-0c5.566,-0 10.085,-4.519 10.085,-10.085l-0,-20.17Z" style="fill:#ebebeb;stroke:#000;stroke-width:1px;"/><path d="M1161.36,517.83c-0,-5.565 -4.519,-10.084 -10.085,-10.084l-20.17,-0c-5.566,-0 -10.084,4.519 -10.084,10.084l-0,20.17c-0,5.566 4.518,10.085 10.084,10.085l20.17,-0c5.566,-0 10.085,-4.519 10.085,-10.085l-0,-20.17Z" style="fill:#ebebeb;stroke:#000;stroke-width:1px;"/></g><g><path d="M157.464,566.83c0,-5.565 -4.518,-10.084 -10.084,-10.084l-20.17,-0c-5.566,-0 -10.085,4.519 -10.085,10.084l0,20.17c0,5.566 4.519,10.085 10.085,10.085l20.17,-0c5.566,-0 10.084,-4.519 10.084,-10.085l0,-20.17Z" style="fill:#ebebeb;stroke:#000;stroke-width:1px;"/><path d="M208.274,566.83c-0,-5.565 -4.519,-10.084 -10.085,-10.084l-20.17,-0c-5.566,-0 -10.085,4.519 -10.085,10.084l0,20.17c0,5.566 4.519,10.085 10.085,10.085l20.17,-0c5.566,-0 10.085,-4.519 10.085,-10.085l-0,-20.17Z" style="fill:#ebebeb;stroke:#000;stroke-width:1px;"/><path d="M259.229,566.83c0,-5.565 -4.519,-10.084 -10.085,-10.084l-20.169,-0c-5.566,-0 -10.085,4.519 -10.085,10.084l-0,20.17c-0,5.566 4.519,10.085 10.085,10.085l20.169,-0c5.566,-0 10.085,-4.519 10.085,-10.085l0,-20.17Z" style="fill:#ebebeb;stroke:#000;stroke-width:1px;"/><path d="M310.229,566.83c0,-5.565 -4.519,-10.084 -10.085,-10.084l-20.169,-0c-5.566,-0 -10.085,4.519 -10.085,10.084l-0,20.17c-0,5.566 4.519,10.085 10.085,10.085l20.169,-0c5.566,-0 10.085,-4.519 10.085,-10.085l0,-20.17Z" style="fill:#ebebeb;stroke:#000;stroke-width:1px;"/><path d="M428.861,566.83c0,-5.565 -4.519,-10.084 -10.085,-10.084l-20.169,-0c-5.566,-0 -10.085,4.519 -10.085,10.084l-0,20.17c-0,5.566 4.519,10.085 10.085,10.085l20.169,-0c5.566,-0 10.085,-4.519 10.085,-10.085l0,-20.17Z" style="fill:#ebebeb;stroke:#000;stroke-width:1px;"/><path d="M479.67,566.83c0,-5.565 -4.518,-10.084 -10.084,-10.084l-20.17,-0c-5.566,-0 -10.085,4.519 -10.085,10.084l0,20.17c0,5.566 4.519,10.085 10.085,10.085l20.17,-0c5.566,-0 10.084,-4.519 10.084,-10.085l0,-20.17Z" style="fill:#ebebeb;stroke:#000;stroke-width:1px;"/><path d="M530.626,566.83c-0,-5.565 -4.519,-10.084 -10.085,-10.084l-20.17,-0c-5.566,-0 -10.084,4.519 -10.084,10.084l-0,20.17c-0,5.566 4.518,10.085 10.084,10.085l20.17,-0c5.566,-0 10.085,-4.519 10.085,-10.085l-0,-20.17Z" style="fill:#ebebeb;stroke:#000;stroke-width:1px;"/><path d="M581.626,566.83c-0,-5.565 -4.519,-10.084 -10.085,-10.084l-20.17,-0c-5.566,-0 -10.084,4.519 -10.084,10.084l-0,20.17c-0,5.566 4.518,10.085 10.084,10.085l20.17,-0c5.566,-0 10.085,-4.519 10.085,-10.085l-0,-20.17Z" style="fill:#ebebeb;stroke:#000;stroke-width:1px;"/><path d="M632.402,566.83c-0,-5.565 -4.519,-10.084 -10.085,-10.084l-20.17,-0c-5.566,-0 -10.084,4.519 -10.084,10.084l-0,20.17c-0,5.566 4.518,10.085 10.084,10.085l20.17,-0c5.566,-0 10.085,-4.519 10.085,-10.085l-0,-20.17Z" style="fill:#ebebeb;stroke:#000;stroke-width:1px;"/><path d="M683.211,566.83c-0,-5.565 -4.519,-10.084 -10.085,-10.084l-20.169,-0c-5.566,-0 -10.085,4.519 -10.085,10.084l-0,20.17c-0,5.566 4.519,10.085 10.085,10.085l20.169,-0c5.566,-0 10.085,-4.519 10.085,-10.085l-0,-20.17Z" style="fill:#ebebeb;stroke:#000;stroke-width:1px;"/><path d="M734.166,566.83c0,-5.565 -4.518,-10.084 -10.084,-10.084l-20.17,-0c-5.566,-0 -10.085,4.519 -10.085,10.084l0,20.17c0,5.566 4.519,10.085 10.085,10.085l20.17,-0c5.566,-0 10.084,-4.519 10.084,-10.085l0,-20.17Z" style="fill:#ebebeb;stroke:#000;stroke-width:1px;"/><path d="M785.166,566.83c0,-5.565 -4.518,-10.084 -10.084,-10.084l-20.17,-0c-5.566,-0 -10.085,4.519 -10.085,10.084l0,20.17c0,5.566 4.519,10.085 10.085,10.085l20.17,-0c5.566,-0 10.084,-4.519 10.084,-10.085l0,-20.17Z" style="fill:#ebebeb;stroke:#000;stroke-width:1px;"/><path d="M836.166,566.83c0,-5.565 -4.518,-10.084 -10.084,-10.084l-20.17,-0c-5.566,-0 -10.085,4.519 -10.085,10.084l0,20.17c0,5.566 4.519,10.085 10.085,10.085l20.17,-0c5.566,-0 10.084,-4.519 10.084,-10.085l0,-20.17Z" style="fill:#ebebeb;stroke:#000;stroke-width:1px;"/><path d="M887.166,566.83c0,-5.565 -4.518,-10.084 -10.084,-10.084l-20.17,-0c-5.566,-0 -10.085,4.519 -10.085,10.084l0,20.17c0,5.566 4.519,10.085 10.085,10.085l20.17,-0c5.566,-0 10.084,-4.519 10.084,-10.085l0,-20.17Z" style="fill:#ebebeb;stroke:#000;stroke-width:1px;"/><path d="M1008.6,566.83c0,-5.565 -4.519,-10.084 -10.085,-10.084l-20.169,-0c-5.566,-0 -10.085,4.519 -10.085,10.084l-0,20.17c-0,5.566 4.519,10.085 10.085,10.085l20.169,-0c5.566,-0 10.085,-4.519 10.085,-10.085l0,-20.17Z" style="fill:#ebebeb;stroke:#000;stroke-width:1px;"/><path d="M1059.41,566.83c0,-5.565 -4.519,-10.084 -10.084,-10.084l-20.17,-0c-5.566,-0 -10.085,4.519 -10.085,10.084l0,20.17c0,5.566 4.519,10.085 10.085,10.085l20.17,-0c5.565,-0 10.084,-4.519 10.084,-10.085l0,-20.17Z" style="fill:#ebebeb;stroke:#000;stroke-width:1px;"/><path d="M1110.36,566.83c-0,-5.565 -4.519,-10.084 -10.085,-10.084l-20.17,-0c-5.566,-0 -10.084,4.519 -10.084,10.084l-0,20.17c-0,5.566 4.518,10.085 10.084,10.085l20.17,-0c5.566,-0 10.085,-4.519 10.085,-10.085l-0,-20.17Z" style="fill:#ebebeb;stroke:#000;stroke-width:1px;"/><path d="M1161.36,566.83c-0,-5.565 -4.519,-10.084 -10.085,-10.084l-20.17,-0c-5.566,-0 -10.084,4.519 -10.084,10.084l-0,20.17c-0,5.566 4.518,10.085 10.084,10.085l20.17,-0c5.566,-0 10.085,-4.519 10.085,-10.085l-0,-20.17Z" style="fill:#ebebeb;stroke:#000;stroke-width:1px;"/></g><g><path d="M157.464,617.83c0,-5.565 -4.518,-10.084 -10.084,-10.084l-20.17,-0c-5.566,-0 -10.085,4.519 -10.085,10.084l0,20.17c0,5.566 4.519,10.085 10.085,10.085l20.17,-0c5.566,-0 10.084,-4.519 10.084,-10.085l0,-20.17Z" style="fill:#ebebeb;stroke:#000;stroke-width:1px;"/><path d="M208.274,617.83c-0,-5.565 -4.519,-10.084 -10.085,-10.084l-20.17,-0c-5.566,-0 -10.085,4.519 -10.085,10.084l0,20.17c0,5.566 4.519,10.085 10.085,10.085l20.17,-0c5.566,-0 10.085,-4.519 10.085,-10.085l-0,-20.17Z" style="fill:#ebebeb;stroke:#000;stroke-width:1px;"/><path d="M259.229,617.83c0,-5.565 -4.519,-10.084 -10.085,-10.084l-20.169,-0c-5.566,-0 -10.085,4.519 -10.085,10.084l-0,20.17c-0,5.566 4.519,10.085 10.085,10.085l20.169,-0c5.566,-0 10.085,-4.519 10.085,-10.085l0,-20.17Z" style="fill:#ebebeb;stroke:#000;stroke-width:1px;"/><path d="M310.229,617.83c0,-5.565 -4.519,-10.084 -10.085,-10.084l-20.169,-0c-5.566,-0 -10.085,4.519 -10.085,10.084l-0,20.17c-0,5.566 4.519,10.085 10.085,10.085l20.169,-0c5.566,-0 10.085,-4.519 10.085,-10.085l0,-20.17Z" style="fill:#ebebeb;stroke:#000;stroke-width:1px;"/><path d="M428.861,617.83c0,-5.565 -4.519,-10.084 -10.085,-10.084l-20.169,-0c-5.566,-0 -10.085,4.519 -10.085,10.084l-0,20.17c-0,5.566 4.519,10.085 10.085,10.085l20.169,-0c5.566,-0 10.085,-4.519 10.085,-10.085l0,-20.17Z" style="fill:#ebebeb;stroke:#000;stroke-width:1px;"/><path d="M479.67,617.83c0,-5.565 -4.518,-10.084 -10.084,-10.084l-20.17,-0c-5.566,-0 -10.085,4.519 -10.085,10.084l0,20.17c0,5.566 4.519,10.085 10.085,10.085l20.17,-0c5.566,-0 10.084,-4.519 10.084,-10.085l0,-20.17Z" style="fill:#ebebeb;stroke:#000;stroke-width:1px;"/><path d="M530.626,617.83c-0,-5.565 -4.519,-10.084 -10.085,-10.084l-20.17,-0c-5.566,-0 -10.084,4.519 -10.084,10.084l-0,20.17c-0,5.566 4.518,10.085 10.084,10.085l20.17,-0c5.566,-0 10.085,-4.519 10.085,-10.085l-0,-20.17Z" style="fill:#ebebeb;stroke:#000;stroke-width:1px;"/><path d="M581.626,617.83c-0,-5.565 -4.519,-10.084 -10.085,-10.084l-20.17,-0c-5.566,-0 -10.084,4.519 -10.084,10.084l-0,20.17c-0,5.566 4.518,10.085 10.084,10.085l20.17,-0c5.566,-0 10.085,-4.519 10.085,-10.085l-0,-20.17Z" style="fill:#ebebeb;stroke:#000;stroke-width:1px;"/><path d="M632.402,617.83c-0,-5.565 -4.519,-10.084 -10.085,-10.084l-20.17,-0c-5.566,-0 -10.084,4.519 -10.084,10.084l-0,20.17c-0,5.566 4.518,10.085 10.084,10.085l20.17,-0c5.566,-0 10.085,-4.519 10.085,-10.085l-0,-20.17Z" style="fill:#ebebeb;stroke:#000;stroke-width:1px;"/><path d="M683.211,617.83c-0,-5.565 -4.519,-10.084 -10.085,-10.084l-20.169,-0c-5.566,-0 -10.085,4.519 -10.085,10.084l-0,20.17c-0,5.566 4.519,10.085 10.085,10.085l20.169,-0c5.566,-0 10.085,-4.519 10.085,-10.085l-0,-20.17Z" style="fill:#ebebeb;stroke:#000;stroke-width:1px;"/><path d="M734.166,617.83c0,-5.565 -4.518,-10.084 -10.084,-10.084l-20.17,-0c-5.566,-0 -10.085,4.519 -10.085,10.084l0,20.17c0,5.566 4.519,10.085 10.085,10.085l20.17,-0c5.566,-0 10.084,-4.519 10.084,-10.085l0,-20.17Z" style="fill:#ebebeb;stroke:#000;stroke-width:1px;"/><path d="M785.166,617.83c0,-5.565 -4.518,-10.084 -10.084,-10.084l-20.17,-0c-5.566,-0 -10.085,4.519 -10.085,10.084l0,20.17c0,5.566 4.519,10.085 10.085,10.085l20.17,-0c5.566,-0 10.084,-4.519 10.084,-10.085l0,-20.17Z" style="fill:#ebebeb;stroke:#000;stroke-width:1px;"/><path d="M836.166,617.83c0,-5.565 -4.518,-10.084 -10.084,-10.084l-20.17,-0c-5.566,-0 -10.085,4.519 -10.085,10.084l0,20.17c0,5.566 4.519,10.085 10.085,10.085l20.17,-0c5.566,-0 10.084,-4.519 10.084,-10.085l0,-20.17Z" style="fill:#ebebeb;stroke:#000;stroke-width:1px;"/><path d="M887.166,617.83c0,-5.565 -4.518,-10.084 -10.084,-10.084l-20.17,-0c-5.566,-0 -10.085,4.519 -10.085,10.084l0,20.17c0,5.566 4.519,10.085 10.085,10.085l20.17,-0c5.566,-0 10.084,-4.519 10.084,-10.085l0,-20.17Z" style="fill:#ebebeb;stroke:#000;stroke-width:1px;"/><path d="M1008.6,617.83c0,-5.565 -4.519,-10.084 -10.085,-10.084l-20.169,-0c-5.566,-0 -10.085,4.519 -10.085,10.084l-0,20.17c-0,5.566 4.519,10.085 10.085,10.085l20.169,-0c5.566,-0 10.085,-4.519 10.085,-10.085l0,-20.17Z" style="fill:#ebebeb;stroke:#000;stroke-width:1px;"/><path d="M1059.41,617.83c0,-5.565 -4.519,-10.084 -10.084,-10.084l-20.17,-0c-5.566,-0 -10.085,4.519 -10.085,10.084l0,20.17c0,5.566 4.519,10.085 10.085,10.085l20.17,-0c5.565,-0 10.084,-4.519 10.084,-10.085l0,-20.17Z" style="fill:#ebebeb;stroke:#000;stroke-width:1px;"/><path d="M1110.36,617.83c-0,-5.565 -4.519,-10.084 -10.085,-10.084l-20.17,-0c-5.566,-0 -10.084,4.519 -10.084,10.084l-0,20.17c-0,5.566 4.518,10.085 10.084,10.085l20.17,-0c5.566,-0 10.085,-4.519 10.085,-10.085l-0,-20.17Z" style="fill:#ebebeb;stroke:#000;stroke-width:1px;"/><path d="M1161.36,617.83c-0,-5.565 -4.519,-10.084 -10.085,-10.084l-20.17,-0c-5.566,-0 -10.084,4.519 -10.084,10.084l-0,20.17c-0,5.566 4.518,10.085 10.084,10.085l20.17,-0c5.566,-0 10.085,-4.519 10.085,-10.085l-0,-20.17Z" style="fill:#ebebeb;stroke:#000;stroke-width:1px;"/></g><rect x="278.626" y="74.468" width="722.941" height="57.231" style="fill:#ebebeb;stroke:#000;stroke-width:1px;"/></svg>